<svg width="24" height="24" viewBox="0 0 24 24" fill="none" xmlns="http://www.w3.org/2000/svg">
<path d="M17.5 8.40096C17.5 6.96853 16.9205 5.59478 15.8891 4.5819C14.8576 3.56903 13.4587 3 12 3C10.5413 3 9.14236 3.56903 8.11091 4.5819C7.07946 5.59478 6.5 6.96853 6.5 8.40096C6.5 14.7021 3.75 16.5024 3.75 16.5024H20.25C20.25 16.5024 17.5 14.7021 17.5 8.40096Z" fill="#DAE0E4" stroke="#D0D5EB" stroke-width="1.5" stroke-linecap="round" stroke-linejoin="round"/>
<path d="M13.586 20.1025C13.4248 20.3754 13.1935 20.6018 12.9152 20.7592C12.6369 20.9167 12.3213 20.9995 12.0001 20.9995C11.679 20.9995 11.3634 20.9167 11.0851 20.7592C10.8068 20.6018 10.5755 20.3754 10.4143 20.1025" stroke="white" stroke-width="2" stroke-linecap="round" stroke-linejoin="round"/>
<circle cx="18" cy="3.75" r="3" fill="#F03460"/>
</svg>
